<svg fill="none" height="76" viewBox="0 0 60 76" width="60" xmlns="http://www.w3.org/2000/svg"><g fill="#4a4a4a"><path d="m18.4501 66.0711c.01-.23-.1801-.59-.1601-.82.01-.23-.03-.46-.02-.69s.1401-.45.1601-.69c.01-.23-.0601-.37-.0501-.61-.2-.08-.27-.24-.49-.32-.2-.08-.43-.1-.64-.18s-.39-.23-.6-.31-.3699-.27-.5799-.35-.42-.15-.63-.23-.42-.15-.63-.23-.5.04-.71-.04c-.23-.08-.4901-.09-.7201-.18s-.4599-.18-.6799-.28-.3301-.46-.5501-.56-.5599.03-.7799-.08-.3901-.32-.6001-.43c-.21-.12-.4399-.21-.6499-.34-.20998-.12-.32001-.41-.53001-.54s-.49007-.14-.69007-.27-.33991-.36-.53991-.5-.4101-.26-.6001-.41-.37995-.3-.56995-.46c-.19-.15-.40996-.27-.58996-.43s-.38006-.3-.56006-.47c-.18-.16-.40996-.28-.57996-.45s-.19999-.49-.36999-.66c-.17-.18-.35001-.33-.51001-.51s-.42008-.28-.58008-.46c-.16-.19-.41995-.29-.56995-.49-.15-.19-.11-.53-.25-.73s-.23999-.42-.36999-.63-.25-.42-.37-.62c-.12-.21-.46995-.3-.57995-.51-.11-.22-.19005-.45-.30005-.67-.1-.22-.08005-.5-.17005-.72-.1-.22-.02999-.51-.11999-.73-.08-.23-.469927-.35-.549927-.58-.07-.23.009951-.51-.050049-.75-.06-.23-.289966-.43-.339966-.67s-.049966-.49-.089966-.73.119956-.51.079956-.75c-.03-.24-.2800485-.45-.3000485-.7-.01999997-.24.2399805-.5.2299805-.75-.01-.24-.25-.47-.25-.72 0-.24.230103-.48.230103-.72.01-.24-.2200835-.49-.2100835-.73s.0800975-.48.1000975-.72.22-.46.25-.7-.2801121-.53-.240112-.77c.04-.24.390063-.42.440063-.66.04-.23.019966-.47.089966-.69s.139981-.44.229981-.65c.1-.21.129995-.46.249995-.65.12-.2.3401-.33.4701-.52.14-.18.11001-.53.26001-.69.16-.17.55999-.08.73999-.24.17-.15.35991-.27.53991-.41s.32001-.33.51001-.46c.19-.12.40999-.2.60999-.31s.42-.17.63-.27.2601-.54.4701-.64c.23-.1.48997-.12.71997-.22.23-.09.43992-.24.66992-.33s.45005-.21.68005-.3.58995.15.81995.07c.23-.09.36009-.47.59009-.55s.50999-.05.73999-.13.44991-.24.67991-.31c.24-.08.5601.11.7901.03.24-.07.4599-.18.6999-.25s.41-.36.65-.43.5601.16.8001.09.4699-.16.7099-.22c.23-.06.4001-.38.6401-.44.23-.06.53.14.77.08s.4699-.08.7099-.13.4501-.22.6801-.27c.24-.05.49.01.73-.04s.42-.38.66-.42.47-.11.71-.15.4799-.1.7099-.14c.24-.04.53.25.77.21s.46-.21.7-.24.4901.04.7301.01.4499-.26.6899-.29.49.07.73.04.4601-.27.7001-.3c.24-.02.5.2.75.18.24-.02.4599-.3.6999-.32s.48-.03.72-.05.5.16.74.15c.24-.02.4901.1.7301.09s.47-.3.71-.31.4799-.08.7199-.09.48-.03.72-.04.4901.09.7301.09c.24-.01.48-.12.72-.12.24-.01.49.29.73.28.24 0 .4799-.18.7199-.18s.48-.07.72-.07.4801.05.7201.05.48.21.72.21.4799-.31.7199-.31.47.36.71.37.4901-.36.7301-.36c.24.01.47.26.71.27s.4799.03.7199.04.49-.24.73-.23.4801.05.7201.07.47.21.71.23.4799.04.7199.06.49-.09.73-.06c.24.02.4601.17.7001.2s.48.05.71.08c.24.03.4599.15.6999.19.24.03.51-.14.74-.1.24.04.4601.18.6901.22.24.04.4599.16.6899.21s.4601.13.6901.18.54-.2.77-.14c.23.05.41.34.64.4s.4599.15.6899.21.52-.12.75-.05.4201.23.6501.3c.22.07.42.22.65.29.22.07.39.32.61.39s.55-.15.77-.07.41.25.63.33.4699.1.6899.18.4401.17.6601.25.4799.08.6899.17c.22.09.41.24.63.33s.4901.14.7001.26.4.29.6.43c.19.14.2599.46.4399.61.19.15.4001.27.5801.43s.3899.29.5599.46c.19.18.3201.38.4001.58.09.22.24.45.25.69.01.23-.2301.46-.2601.69s.13.48.11.7c-.02.23-.28.47-.25.69.04.23.1701.45.1901.68.02.24-.02.47-.02.7 0 .24-.06.46-.08.69s.23.5.2.73-.34.42-.39.65c-.04.23.1.5.04.73s-.29.41-.35.63c-.06.23.05.5-.02.72s-.33.38-.4.61.11.55.03.77c-.08.23-.45.35-.54.57s.0499.54-.0401.76c-.1.22-.2299.43-.3399.64-.1.22-.37.35-.48.56s-.11.48-.23.69-.0901.51-.2201.71c-.12.21-.4399.3-.5699.5s-.1601.47-.2901.67c-.14.2-.34.35-.48.55-.14.19-.23.43-.38.62s-.47.24-.62.43-.3199.35-.4699.54c-.16.18-.06.59-.22.77s-.33.35-.5.52-.37.32-.54.49-.51.16-.69.32c-.17.16-.2.49-.38.65s-.5501.1-.7401.26c-.18.16-.28.41-.46.56s-.2599.44-.4399.59c-.19.15-.3701.3-.5601.45s-.43.23-.62.37-.3699.3-.5599.44-.47.16-.66.3c-.2.14-.3.41-.49.54-.2.13-.5001.1-.7001.23s-.26.49-.46.61-.59-.08-.8.04-.3299.38-.5399.49-.3501.37-.5601.48-.42.23-.64.33c-.21.1-.4499.16-.6699.25-.22.1-.44.19-.66.28s-.4501.18-.6701.26-.4899.05-.71.13c-.25.09-.4699.13-.6099.25-.19.16-.19.4-.23.6s-.16.42-.14.64.03.43.02.64c-.01.22-.02.45-.14.64.23.07.5.17.73.23.24.07.4999.01.7299.07s.49.05.72.11.43.25.66.32.5.02.73.09.4.3.63.39c.22.08.4801.09.7001.19s.4999.13.6799.26c.2.13.1601.57.3201.72.17.17.39.26.52.45.13.2.23.39.31.61.09.22.1699.42.2099.65s.2001.46.1901.7c-.02.23-.1001.47-.1701.7-.06.22-.25.4-.36.61-.11.2-.27.36-.42.55-.14.18-.2399.39-.4299.55-.17.15-.32.35-.52.48s-.5.11-.71.24c-.21.12-.41.26-.62.37-.22.11-.4701.14-.6901.24s-.3199.48-.5399.57-.43.24-.66.32-.53-.06-.77.02c-.23.07-.4201.3-.6601.36-.23.06-.53-.15-.77-.1s-.4399.25-.6799.29-.49-.02-.73.01-.4601.27-.7001.29c-.25.02-.51-.17-.75-.16-.25.02-.49.08-.73.1-.25.02-.4899 0-.7399.02s-.48.22-.73.23-.51-.26-.75-.25c-.25.01-.48.24-.73.26-.25.01-.5-.18-.75-.17s-.4801.36-.7201.37-.51-.35-.75-.34c-.25.01-.48.22-.73.23s-.5-.14-.74-.13-.49.15-.73.16-.4799.24-.7299.25-.51-.37-.75-.36-.49.1-.74.11-.48.2-.73.21-.49.04-.74.05-.5-.15-.75-.14-.4801.1-.7301.11-.49-.09-.73-.09c-.25 0-.5.29-.74.28s-.4799-.26-.7199-.28-.47-.17-.71-.2-.53.27-.77.23-.49-.06-.73-.11c-.24-.04-.43-.36-.66-.41-.24-.05-.4501-.17-.6901-.24-.24-.06-.48-.07-.72-.14-.23-.07-.4899-.05-.7199-.13s-.48-.09-.71-.18-.44-.22-.67-.31c-.22-.09-.4201-.26-.6401-.36s-.5099-.06-.7299-.17-.37-.35-.58-.47c-.22-.12-.47-.17-.66-.3-.21-.14-.35-.35-.51-.5-.19-.17-.44-.26-.58-.44-.15-.2-.06-.51-.14-.72-.09-.23-.22999-.4-.22999-.64 0-.23.14999-.41.21999-.65.07-.21.12-.41.26-.62.12-.19.07-.52.24-.71.15-.17.45-.2.64-.36.17-.15.39-.24.59-.39.19-.13.41-.22.64-.34.21-.11.42-.23.66-.33.22-.09.4399-.2.6799-.28.23-.08.38-.47.62-.53.24-.07.5801.25.8201.2.25-.05.4399-.35.6899-.38.25-.04.5201.07.7601.05.26-.02.4999-.31.7399-.31.33-.01.6801.32.9001.36zm36.7199-23.98c-.22.08-.5099.38-.7399.46-.22.09-.4201.23-.6501.31-.22.09-.4899.07-.7099.16s-.4.28-.62.37-.5.02-.73.11c-.22.09-.42.23-.65.31-.22.08-.47.09-.7.18-.22.08-.4901.04-.7101.11-.23.08-.4499.15-.6799.22s-.4501.14-.6801.2-.41.32-.64.37-.4499.19-.6799.24-.4701.1-.7001.15-.52-.19-.76-.14c-.23.05-.4199.35-.6499.4s-.4901-.02-.7201.02-.4699.11-.6999.15-.5-.11-.74-.07c-.23.04-.4501.22-.6801.26-.24.04-.4899-.03-.7199.01-.24.04-.47.1-.7.14-.24.04-.4701.06-.7101.1s-.4599.12-.6999.15-.4701.09-.7001.13c-.24.03-.4599.14-.7.17-.24.03-.4999-.14-.7399-.1-.24.03-.47.1-.7.13-.24.03-.4501.2-.6901.24-.24.03-.4499.21-.6899.24-.25.04-.53-.19-.78-.21s-.49-.1-.75-.14c-.25-.04-.51-.09-.76-.11-.26-.03-.51.22-.75.24s-.48.01-.72.04-.5-.07-.74-.04c-.24.04-.51-.09-.74-.05-.24.04-.42.4-.66.44s-.5-.09-.74-.05-.4601.23-.7001.26-.49 0-.73.02-.4899-.17-.7299-.16c-.25.01-.5.23-.75.23s-.49-.29-.74-.3-.51.21-.76.19c-.25-.01-.48-.26-.73-.28s-.52.2-.76.18c-.25-.02-.49-.09-.74-.11s-.48-.22-.73-.24c-.25-.03-.53.3-.78.27s-.46-.37-.71-.39-.5.03-.75.01-.49-.03-.74-.06-.5001.03-.7401.01c-.25-.02-.48-.15-.73-.18-.25-.02-.52.19-.76.17-.25-.03-.4499-.4-.6999-.43s-.48-.09-.73-.12c-.24-.03-.5.01-.74-.03s-.47-.13-.72-.18c-.24-.05-.4701-.15-.7101-.2-.23-.05-.5599.26-.7899.2s-.45-.19-.68-.25-.48-.08-.71-.14c-.23-.07-.47007-.11-.70007-.17-.23-.07-.35997-.48-.58997-.55s-.55003.16-.78003.09-.42002-.26-.65002-.33-.47996-.07-.70996-.14-.36998-.41-.59998-.48-.47007-.12-.70007-.19-.52989.07-.75989 0-.43004-.44-.67004-.51c-.02.08-.35997.54-.33997.8.02.24.29996.46.32996.69.02.24-.21005.51-.17005.74.03.24.05009.48.09009.72s.21001.45.26001.68.00995.5.06995.73.40999.38.48999.6c.07.23.17.44.25.66s.18003.43.28003.65c.09.22-.11001.57-.01001.79s.33995.37.44995.58.14001.47.26001.68.42004.31.54004.51c.13.2.16004.47.29004.67.14.2.44997.26.59997.45.14.19.1.53.25.71s.50004.2.66004.38.30997.36.46997.53.18998.48.35998.65.24993.43.42993.6c.18001.16.5401.12.7201.28s.4.26.58.41c.19.15.3799.29.5699.43.19.15.31.37.51.51s.45.19.65.32.2401.51.4401.63.4999.1.6999.22c.21.12.4501.17.6601.28s.4.26.61.36c.22.1.3499.39.5699.49.22.09.56-.1.78-.02.22.09.3201.5.5501.58.22.08.5699-.2.7999-.13s.38.38.61.44.4601.14.6901.2.52-.14.75-.09.4599.12.6899.16.4401.26.6701.29c.23.04.4699.07.7099.1s.4901-.07.7201-.05c.24.02.46.16.7.18s.4799.02.7099.03c.24.01.4801.11.7201.11s.48-.21.72-.21.4699.1.7099.09c.24 0 .48.07.71.06.24-.01.4801.03.7101.02.24-.01.4599-.33.6899-.34.24-.01.49.21.72.19.24-.02.4801-.01.7101-.03.24-.02.4499-.3.6799-.32.24-.02.4801.05.7101.02.24-.03.48.03.71 0s.4999.11.7299.08c.23-.04.4101-.39.6501-.43.23-.04.4799.01.7199-.04.23-.05.4501-.17.6801-.22.23-.06.4599-.11.6899-.17s.4301-.22.6501-.29c.23-.07.47-.07.69-.15.22-.07.4199-.23.6399-.31s.4601-.13.6801-.22.52.02.74-.07.42-.23.64-.32.42-.23.64-.33.44-.19.65-.29c.22-.1.38-.3.6-.41.21-.1.52-.02.74-.13.21-.11.33-.39.54-.5s.54 0 .75-.12.36-.33.57-.45.43-.21.64-.34c.2-.13.44-.21.64-.34s.2399-.49.4399-.63.55-.05.74-.19.2701-.44.4601-.59c.19-.14.4899-.15.6699-.3.19-.15.2501-.44.4301-.6.18-.15.4999-.16.6699-.32.18-.16.1601-.53.3401-.69.17-.16.55-.12.72-.29s.1499-.52.3199-.69c.16-.17.35-.32.51-.5s.46-.24.61-.42c.16-.18.2101-.45.3601-.64s.1599-.48.3099-.67c.14-.19.46-.26.6-.45.14-.2.1701-.47.3001-.67s.3199-.36.4499-.57c.12-.21.1801-.45.3001-.66s.42-.32.53-.53.23-.43.33-.65-.1201-.57-.0301-.79.18-.43.26-.66c.08-.22.1901-.43.2701-.66.07-.23.37-.39.44-.62.06-.23-.1-.52-.05-.75.03-.21.2999-.53.3499-.77zm-33.3199-10.25c-.15.14-.3701.79-.6901.86-.23.05-.44.16-.66.22-.23.05-.48-.01-.7.04-.23.05-.43.21-.66.26s-.4899-.06-.7099-.01c-.23.05-.4401.15-.6701.2s-.4699.02-.6999.07-.48-.03-.71.02-.4501.1-.6801.15-.4499.11-.6799.16-.4.31-.63.37c-.23.05-.43.19-.65.25s-.4501.12-.6701.18-.52-.16-.75-.09c-.22.06-.3699.39-.5899.46s-.4701.04-.6901.11c-.22.08-.4299.18-.6399.26-.22.08-.50008-.01-.72008.08-.21.09-.36995.31-.57995.41-.21.09-.47006.1-.68006.2s-.40998.23-.60998.33c-.21.11-.42.2-.62.31s-.38996.26-.58996.38c-.2.11-.38997.25-.58997.37s-.36006.3-.56006.42c-.22.14-.53995.11-.69995.25-.2.17-.36009.39-.47009.57-.14.22-.07997.49-.08997.72-.01.22.17002.37.27002.61.08.2.00003.5.15003.71.13.18.24992.39.41992.58.16.18.33.36.5.52.18.16.52008.11.71008.25s.35994.3.55994.42c.21.12.35006.35.56006.45.22.1.37998.34.60998.42.22.08.55003-.17.78003-.11s.41992.27.65991.31c.24.04.50012-.08.7401-.03.23.05.46.15.7.2.23.05.43.29.66.34s.51-.12.75-.07.4199.37.6499.42c.24.04.51-.14.75-.1s.4401.3.6801.33.4999-.18.7399-.16.47.08.71.08c.23.01.4701.18.7001.18s.4599-.35.6999-.36c.23-.01.48.3.72.29.23-.01.4701-.11.7001-.14.23-.02.4699-.06.6999-.09s.4501-.14.6801-.18.4799.02.7099-.03.4-.35.62-.41c.23-.06.5501.2.7701.12.23-.08.4699-.12.6999-.19.24-.07.4501-.2.6901-.25s.49-.05.73-.09.4899-.02.7299-.05.4501-.43.7001-.45c.24-.02.5.04.74.03s.49-.07.74-.08.49-.04.74-.04.49.35.74.35.49-.32.74-.32.4899.12.7299.12c.25 0 .49-.08.73-.08s.49.27.74.26c.24-.01.4801-.03.7201-.01s.51-.18.76-.14c.24.04.4299.38.6699.43s.48.07.72.13.54-.15.78-.09.4201.37.6601.42.4799.13.7199.17c.2.04.42-.06.63-.04.2.02.4.14.6.15s.43-.27.63-.25c.28.03.5701.04.8401.08.28.04.5199.06.7899.1.17-.11.4901.02.7101-.13.2-.14.3299-.37.5599-.44.2401-.06.5101-.02.7601-.08.24-.06.4399-.31.6899-.37s.52.01.76-.04c.25-.06.4401-.32.6901-.38.25-.05.55.13.79.07.25-.06.4299-.36.6799-.42s.49-.11.73-.17.5401.07.7801 0 .52-.01.77-.08c.24-.07.4-.41.64-.49.22-.08.42-.21.64-.29s.43-.18.64-.27c.22-.09.4699-.08.6799-.18s.38-.29.59-.39.55.05.76-.05c.21-.11.3401-.37.5401-.48.21-.11.3799-.28.5799-.4s.43-.19.64-.3c.2-.12.5101-.05.7101-.17.22-.13.2299-.53.3999-.71.18-.19.61-.19.73-.41.12-.23-.15-.59-.11-.83.05-.25.29-.49.26-.73-.04-.25-.12-.52-.25-.74-.13-.21-.4699-.21-.6899-.36-.18-.13-.3501-.28-.5401-.41s-.2799-.4-.4699-.52-.39-.24-.58-.35c-.2-.11-.46-.1-.66-.2s-.3601-.3-.5701-.39-.43-.15-.64-.22c-.22-.07-.4199-.22-.6399-.26-.24-.05-.51.11-.75.07s-.4501-.19-.6901-.23-.4599-.16-.6999-.2-.4701-.12-.7101-.15c-.24-.04-.52.24-.76.2s-.4399-.3-.6799-.33-.47-.09-.71-.12-.51.2-.74.17c-.24-.03-.4601-.15-.7001-.18s-.4699-.14-.7099-.17-.4601-.23-.7001-.26c-.24-.02-.51.26-.75.24s-.4699-.15-.71-.18c-.23-.02-.4699.02-.7099 0-.23-.02-.4701-.04-.7001-.06s-.4699.06-.7099.04c-.23-.02-.46-.1-.7-.11-.23-.01-.4701.05-.7101.04-.23-.01-.4699-.06-.6999-.07s-.46-.23-.7-.24c-.23-.01-.4701.04-.7101.03-.23 0-.4699.04-.7099.04-.23 0-.4701-.01-.7001-.01-.24 0-.47.11-.7.12-.23 0-.4699-.21-.7099-.2-.23 0-.4601.2-.7001.21-.23.01-.4799-.24-.7099-.23s-.47.12-.7.13-.4701-.02-.7101-.01c-.23.01-.4699-.03-.7099-.01-.23.02-.4501.31-.6801.33s-.49-.24-.72-.22-.4499.24-.6799.26-.4901-.13-.7201-.11-.4499.23-.6799.26-.49-.15-.72-.12-.43.34-.66.37c-.2.03-.44-.23-.64-.2s-.3601.32-.5601.35-.41.01-.61.02c-.24.05-.4999-.4-.7899-.54zm13.6899 35.14c0-.27-.2199-.63-.2199-.88 0-.27-.0601-.53-.0601-.78 0-.27.1101-.53.1101-.77 0-.28-.06-.42-.06-.65-.25.01-.38-.1-.63-.09s-.49.08-.74.09-.5-.06-.74-.05c-.25.01-.5-.11-.74-.1-.25.01-.49.02-.74.03s-.49.03-.74.04-.4801.23-.7301.24-.49.11-.73.12c-.25.01-.49.02-.74.03s-.5-.27-.75-.26-.4799.29-.7199.3-.49-.08-.74-.07c-.24.01-.49.05-.73.06s-.5-.17-.74-.15-.48.17-.73.18c-.24.01-.4901-.08-.7401-.07-.24.01-.49.06-.73.07s-.49.02-.73.03c-.02 0-.0599.33-.0699.7-.01.19.01.42.02.65.01.22.09.43.12.64.03.23-.1301.5-.0701.69.05.14.41.26.74.31.22.03.48-.09.73-.07.26.02.53-.11.74-.08.25.04.4601.29.7001.32.25.03.49.09.74.11s.5.05.74.06c.25.01.5-.24.75-.23.25 0 .4899.04.7399.04s.5.13.74.12c.25-.01.5.15.75.13.25-.01.47-.35.72-.37s.5.13.75.11.4701-.21.7201-.24c.24-.03.49 0 .74-.03.24-.03.51.14.76.11.24-.03.46-.28.71-.31.24-.03.53.21.77.18.25-.02.5899-.12.8299-.16z"/><path d="m29 .781091c.02.239999.23.349999.25.599999.02.24.14.47.16.71s-.26.51-.24.75.3001.46.3201.7.0199.48.0399.72-.16.5-.14.74.3201.46.3501.7c.02.24-.0101.49.0199.73.02.24.03.48.05.72s-.2199.5-.1999.74.22.46.24.7.1699.47.1999.71-.15.5-.12.74001c.02.24-.02.49 0 .72.02.24.05.48.07.72s.0601.48.0801.72.0499.48.0699.72.01.48.03.72c.02.22.34.44.33.66-.01.23-.2299.44-.2999.63-.08.21-.1401.45-.3201.59-.16.12-.4099.1-.6599.14-.22.04-.41-.1-.64-.15-.22-.04-.4601.02-.6701-.08s-.4099-.21-.5799-.35c-.18-.16-.26-.38-.38-.56-.13-.21-.33-.37-.35-.58-.02-.24.1699-.5.1499-.75-.02-.24-.31-.47-.33-.71s0-.49-.02-.73.1001-.5.0801-.74-.12-.48-.14-.72-.1301-.48001-.1501-.72001.07-.49.05-.74-.1599-.48-.1699-.72c-.02-.24-.0101-.49-.0201-.73-.02-.24.1-.49.08-.74s-.24-.47-.26-.72c-.02-.23.27-.49.25-.72s.06-.47.04-.71c-.02-.23-.4199-.44-.4399-.67s.15-.48.14-.71-.0801-.47-.0901-.7-.01-.47-.02-.7c0-.3-.0799-.6-.0299-.809998.08-.29.41-.41.61-.54.19-.12.4099-.3800006.7199-.36000063.22.01000003.43.35000063.71.43000063.22.07.45.129999.68.189999.2.05.31.1.55.16z"/><path d="m21.55 16.6311c-.25-.01-.43-.16-.65-.2-.24-.04-.49.03-.7-.04-.23-.08-.5099-.04-.7099-.14-.21-.11-.3701-.32-.5501-.46s-.1899-.46-.3499-.63-.4201-.24-.5601-.43c-.13-.19-.4399-.28-.5599-.48s-.0801-.49-.1901-.7c-.11-.22-.34-.38-.45-.6s-.2199-.44-.3399-.66 0-.56-.12-.78-.1801-.47-.3001-.68c-.12-.22-.5799-.24-.6999-.46s-.2101-.44998-.3301-.65998c-.12-.22-.0599-.53-.1899-.75-.12-.21-.1701-.47-.2901-.68s-.4399-.32-.5699-.53-.0401-.55-.1601-.76-.19-.46-.32-.67-.49-.29-.62-.5c-.12-.21-.1-.51-.22-.73-.12-.21-.3099-.39-.4399-.6-.12-.21-.3501-.37-.4701-.59-.17-.31-.35-.53-.37-.73-.02-.19.12-.44.25-.78.07-.18.2-.46.32-.74.26.01.5401.28.7701.33.25.05.53-.04.74.05.23.1.3899.31.5899.45s.55.12.72.29.22.47.38.67c.15.19.4401.3.5701.51s.1699.48.2899.7c.12.21.12.5.23.72.11.21.3.37.41.58s.14.46.25.67.36.33.48.54c.12.2.29.37.41.57s.1.48.22.68.39.32.51.52.04.52.15.72c.12.2.4301.29.5501.48998.12.2.2299.41.3499.61s.2901.37.4101.58c.12.2.0399.52.1599.72s.43.29.55.5.24.43.36.64.12.49.23.71.3.41.4.63c.09.23.2.46.27.69.08.21-.0399.53-.1199.78-.03.25-.2401.43-.2901.63z"/><path d="m34 14.6111c.18-.2.35-.44.51-.62.18-.2.5201-.22.6801-.4.17-.19.22-.48.39-.66.17-.19.31-.36.48-.55-.22-.14-.57-.29-.95-.54.1-.22.4499-.41.5599-.62.1-.22-.0699-.57.0301-.78.1-.22.4999-.3.5999-.51.1-.22.0701-.5.1701-.71.1-.22.0699-.5.1799-.71.1-.22.4601-.31.5701-.53.1-.22.14-.46.25-.68.1-.22-.08-.57.02-.79s.5-.3.6-.51.04-.51.14-.73.24-.42.35-.63c.1-.22.1199-.47.2199-.69s.35-.36.45-.58.2401-.42.3401-.63.25-.41.35-.63c.1-.2-.0401-.54.0799-.71.14-.19.5001-.07.6801-.15.18-.07.3599-.350002.5999-.260002.16.060002.29.300002.49.460002.15.13.3301.22.5401.28.18.05.41-.03.62.01.19.04.33.19.54.25-.1.22-.27.37-.37.58-.1.22-.17.44-.27.66s-.2301.41-.3401.63c-.1.21-.03.51-.13.72s-.4.33-.5.55c-.1.21-.1599.45-.2599.66s.05.54-.05.76-.2001.43-.2901.64c-.1.21-.52.28-.61.5-.1.22-.0799.49-.1799.7-.1.22-.2401.42-.3401.63-.1.22-.15.46-.24.67-.1.22-.2199.42-.3099.64-.1.22-.16.45-.26.67s-.2101.43-.3001.65-.2.43-.29.65-.2299.42-.3199.64-.02.51-.1.73c-.09.22-.27.4-.36.63-.11.28-.2201.5-.3201.69-.15.28-.3.4-.49.5-.2.11-.34.08-.65.02-.21-.04-.5399.18-.8199.07-.18-.07-.3501-.22-.5401-.32-.17-.09-.3499-.18-.5499-.29-.19-.09-.4001-.26-.6001-.36z"/></g></svg>